<?xml version="1.0" encoding="UTF-8"?><svg id="Ebene_2" xmlns="http://www.w3.org/2000/svg" viewBox="0 0 85.41 33.48"><g id="Ebene_1-2"><path d="m14.73,19.49c.2-2.25,1-4.01,2.4-5.28,1.4-1.27,3.1-1.91,5.09-1.91,1.39,0,2.65.28,3.79.84,1.14.56,2.04,1.39,2.71,2.47.66,1.08,1,2.38,1,3.88h-14.98Zm13.64-9.05c-1.73-.98-3.72-1.47-5.98-1.47s-4.35.5-6.13,1.49c-1.78,1-3.15,2.42-4.14,4.27-.98,1.85-1.47,4-1.47,6.45s.51,4.61,1.52,6.47c1.01,1.86,2.4,3.3,4.18,4.31,1.78,1.01,3.79,1.52,6.04,1.52,2.83,0,5.2-.71,7.1-2.14,1.91-1.43,3.18-3.28,3.81-5.56h-4.24c-.46,1.33-1.26,2.39-2.4,3.18-1.14.79-2.56,1.19-4.27,1.19-2.08,0-3.85-.66-5.31-1.97-1.46-1.31-2.26-3.14-2.4-5.48h18.97c.09-.84.13-1.63.13-2.38,0-2.17-.47-4.11-1.41-5.82-.94-1.72-2.27-3.07-4.01-4.05" fill="#f84040"/><path d="m56.33,26.03c-.77,1.33-1.77,2.32-3.01,2.99-1.24.66-2.57,1-3.98,1s-2.71-.32-3.9-.97c-1.18-.65-2.13-1.64-2.84-2.97-.71-1.33-1.06-2.96-1.06-4.89s.36-3.52,1.08-4.85c.72-1.33,1.68-2.32,2.88-2.97,1.2-.65,2.52-.97,3.96-.97s2.73.32,3.94.97c1.21.65,2.19,1.64,2.94,2.97.75,1.33,1.13,2.94,1.13,4.85s-.38,3.52-1.15,4.85m-.71-15.57c-1.82-1-3.85-1.49-6.11-1.49s-4.29.5-6.11,1.49c-1.82,1-3.26,2.43-4.31,4.29-1.05,1.86-1.58,4.01-1.58,6.43s.51,4.61,1.54,6.47c1.02,1.86,2.44,3.3,4.24,4.31,1.8,1.01,3.82,1.52,6.04,1.52s4.3-.5,6.15-1.52c1.85-1.01,3.31-2.45,4.4-4.31,1.08-1.86,1.62-4.02,1.62-6.47s-.53-4.6-1.58-6.45c-1.05-1.85-2.49-3.27-4.31-4.27" fill="#f84040"/><path d="m80.43,9.35v-1.69c0-1.56.35-2.68,1.06-3.36.71-.68,1.93-1.02,3.66-1.02V0c-3.03,0-5.23.61-6.6,1.84-1.37,1.23-2.06,3.17-2.06,5.82v1.69h-5.98v-1.69c0-1.56.35-2.68,1.06-3.36.71-.68,1.93-1.02,3.66-1.02V0c-3.03,0-5.23.61-6.6,1.84-1.37,1.23-2.06,3.17-2.06,5.82v1.69h-3.07v3.25h3.07v20.48h3.94V12.6h5.98v20.48h3.94V12.6h4.98v-3.25h-4.98Z" fill="#f84040"/><path d="m3.94,25.7V.28H0v25.42c0,2.66.69,4.6,2.06,5.82,1.37,1.23,3.57,1.84,6.6,1.84v-3.29c-1.73,0-2.95-.34-3.66-1.02-.71-.68-1.06-1.8-1.06-3.36" fill="#f84040"/></g></svg>