<?xml version="1.0" encoding="UTF-8"?><svg id="Ebene_4" xmlns="http://www.w3.org/2000/svg" viewBox="0 0 13.6 20"><path id="Pfad_2930" d="M6.25,6.93v-2.05H3.13v1.03h-1.04v2.57H0v2.05H2.08v4.62h2.08v-4.62h2.08v-2.05h-2.08v-1.54h2.08Z" fill="#fdff00"/><path id="Pfad_2930-2" d="M7.25,7.93v-2.05h-3.13v1.03h-1.04v2.57H1v2.05H3.08v4.62h2.08v-4.62h2.08v-2.05h-2.08v-1.54h2.08Z" fill="#fb00b6"/><polygon points="4.96 5.27 3.92 5.27 3.92 7.84 1.83 7.84 1.83 9.89 3.92 9.89 3.92 14.51 6 14.51 6 9.89 8.08 9.89 8.08 7.84 6 7.84 6 6.3 8.08 6.3 8.08 4.25 4.96 4.25 4.96 5.27" fill="#2ef9fc"/><path id="Pfad_2930-3" d="M7.25,6.93v-2.05h-3.13v1.03h-1.04v2.57H1v2.05H3.08v4.62h2.08v-4.62h2.08v-2.05h-2.08v-1.54h2.08Z"/></svg>