<?xml version="1.0" encoding="UTF-8"?><svg id="Ebene_4" xmlns="http://www.w3.org/2000/svg" viewBox="0 0 20 20"><path d="M10.8,5.67v-.57h-.57v-.57H1.24v.57H.67v.57H.1V14.66H.67v.57h.57v.57H10.23v-.57h.57v-.57h.57V5.67h-.57Zm-.43,7.99h-.57v.57h-.57v.57H2.24v-.57h-.57v-.57h-.57V6.67h.57v-.57h.57v-.57h6.99v.57h.57v.57h.57v6.99Z" fill="#fdff00"/><rect x="7.94" y="6.56" width="1.39" height="1.39" fill="#fdff00"/><path d="M7.28,8.45h-.57v-.57h-2.28v.57h-.57v.57h-.57v2.28h.57v.57h.57l.1,.26,2.18,.31v-.57h.57v-.57h.57v-2.28h-.57v-.57Zm.86,1.85l-.37,1.01h-2.77v-.57h-.57v-1.14h.57v-.57h1.14l.12-.28,1.18,.15,.69,1.4Z" fill="#fdff00"/><path d="M11.8,6.67v-.57h-.57v-.57H2.24v.57h-.57v.57h-.57V15.66h.57v.57h.57v.57H11.23v-.57h.57v-.57h.57V6.67h-.57Zm-.43,7.99h-.57v.57h-.57v.57H3.24v-.57h-.57v-.57h-.57V7.67h.57v-.57h.57v-.57h6.99v.57h.57v.57h.57v6.99Z" fill="#fb00b6"/><rect x="8.94" y="7.56" width="1.39" height="1.39" fill="#fb00b6"/><path d="M8.28,9.45h-.57v-.57h-2.28v.57h-.57v.57h-.57v2.28h.57v.57h.57v.57h2.28v-.57h.57v-.57h.57v-2.28h-.57v-.57Zm-.57,2.28h-.57v.57h-1.14v-.57h-.57v-1.14l-.09-1.26,.88-.8,1.61,.74,.17,1.3-.29,.02v1.14Z" fill="#fb00b6"/><path d="M12.63,5.04v-.57h-.57v-.57H3.08v.57h-.57v.57h-.57V14.02h.57v.57h.57v.57H12.06v-.57h.57v-.57h.57V5.04h-.57Zm-.43,7.99h-.57v.57h-.57v.57H4.08v-.57h-.57v-.57h-.57V6.04h.57v-.57h.57v-.57h6.99v.57h.57v.57h.57v6.99Z" fill="#2ef9fc"/><rect x="9.78" y="5.93" width="1.39" height="1.39" fill="#2ef9fc"/><path d="M9.12,7.82h-.57v-.57h-2.28v.57h-.57v.57h-.57v2.28h.57v.57h.57v.57h2.28v-.57h.57v-.57h.57v-2.28h-.57v-.57Zm-.57,2.28h-.57v.57h-1.14v-.57h-.57v-1.13h.56s.01-.58,.01-.58h1.14v.57h.57v1.14Z" fill="#2ef9fc"/><path d="M11.8,5.67v-.57h-.57v-.57H2.24v.57h-.57v.57h-.57V14.66h.57v.57h.57v.57H11.23v-.57h.57v-.57h.57V5.67h-.57Zm-.43,7.99h-.57v.57h-.57v.57H3.24v-.57h-.57v-.57h-.57V6.67h.57v-.57h.57v-.57h6.99v.57h.57v.57h.57v6.99Z"/><rect x="8.94" y="6.56" width="1.39" height="1.39"/><path d="M8.28,8.45h-.57v-.57h-2.28v.57h-.57v.57h-.57v2.28h.57v.57h.57v.57h2.28v-.57h.57v-.57h.57v-2.28h-.57v-.57Zm-2.28,.57h1.14v.57h.57v1.14h-.57v.57h-1.14v-.57h-.57v-1.13h.56"/></svg>