<?xml version="1.0" encoding="UTF-8"?><svg id="Ebene_4" xmlns="http://www.w3.org/2000/svg" viewBox="0 0 19.17 20"><g><path id="Pfad_2934" d="M-.03,10.25v4.89H2.42V7.81H-.03v2.45Z" fill="#fdff00"/><rect id="Rechteck_1321" x="-.03" y="3.99" width="2.23" height="2.68" fill="#fdff00"/><path id="Pfad_2935" d="M10.65,10.25v-1.22h-3.67v-1.22h-2.45v7.34h2.45v-3.67h2.45v3.67h2.45v-4.89h-1.22Z" fill="#fdff00"/></g><g><path id="Pfad_2934-2" d="M.97,11.25v4.89H3.42v-7.34H.97v2.45Z" fill="#fb00b6"/><rect id="Rechteck_1321-2" x=".97" y="4.99" width="2.23" height="2.68" fill="#fb00b6"/><path id="Pfad_2935-2" d="M11.65,11.25v-1.22h-3.67v-1.22h-2.45v7.34h2.45v-3.67h2.45v3.67h2.45v-4.89h-1.22Z" fill="#fb00b6"/></g><polygon points="1.81 9.62 1.81 14.51 4.25 14.51 4.25 7.17 1.81 7.17 1.81 9.62" fill="#2ef9fc"/><rect x="1.81" y="3.35" width="2.23" height="2.68" fill="#2ef9fc"/><polygon points="12.49 8.4 8.82 8.4 8.82 7.17 6.37 7.17 6.37 14.51 8.82 14.51 8.82 10.84 11.27 10.84 11.27 14.51 13.71 14.51 13.71 9.62 12.49 9.62 12.49 8.4" fill="#2ef9fc"/><path id="Pfad_2934-3" d="M.97,10.25v4.89H3.42V7.81H.97v2.45Z"/><rect id="Rechteck_1321-3" x=".97" y="3.99" width="2.23" height="2.68"/><path id="Pfad_2935-3" d="M11.65,10.25v-1.22h-3.67v-1.22h-2.45v7.34h2.45v-3.67h2.45v3.67h2.45v-4.89h-1.22Z"/></svg>