<?xml version="1.0" encoding="UTF-8"?><svg id="Ebene_4" xmlns="http://www.w3.org/2000/svg" viewBox="0 0 22.27 20"><g><path d="M14.15,5.52v-.57h-.77v-.57H1.62v.57H.85v.57H.08V14.51H.85v.57h.77v.57H13.38v-.57h.77v-.57h.77V5.52h-.77Zm-.23,7.99h-.77v.57h-.77v.57H2.62v-.57h-.77v-.57h-.77V6.52h.77v-.57h.77v-.57H12.38v.57h.77v.57h.77v6.99Z" fill="#fdff00"/><polygon points="8.61 8.63 7.5 8.63 7.5 7.92 6.39 7.92 6.39 7.21 5.28 7.21 5.28 12.91 6.39 12.91 6.39 12.19 7.5 12.19 7.5 11.48 8.61 11.48 8.61 10.77 9.71 10.77 9.71 9.34 8.61 9.35 8.61 8.63" fill="#fdff00"/></g><g><path d="M15.15,6.52v-.57h-.77v-.57H2.62v.57h-.77v.57h-.77V15.51h.77v.57h.77v.57H14.38v-.57h.77v-.57h.77V6.52h-.77Zm-.23,7.99h-.77v.57h-.77v.57H3.62v-.57h-.77v-.57h-.77V7.52h.77v-.57h.77v-.57H13.38v.57h.77v.57h.77v6.99Z" fill="#fb00b6"/><polygon points="9.61 9.63 8.5 9.63 8.5 8.92 7.39 8.92 7.39 8.21 6.28 8.21 6.28 13.91 7.39 13.91 7.39 13.19 8.5 13.19 8.5 12.48 9.61 12.48 9.61 11.77 10.71 11.77 10.71 10.34 9.61 10.35 9.61 9.63" fill="#fb00b6"/></g><path d="M15.98,4.32h-.77v-.57H3.45v.57h-.77v.57h-.77V13.87h.77v.57h.77v.57H15.22v-.57h.77v-.57h.77V4.89h-.77v-.57Zm-.23,8.56h-.77v.57h-.77v.57H4.45v-.57h-.77v-.57h-.77V5.89h.77v-.57h.77v-.57H14.22v.57h.77v.57h.77v6.99Z" fill="#2ef9fc"/><polygon points="10.44 8 9.33 8 9.33 7.29 8.22 7.29 8.22 6.58 7.12 6.58 7.12 12.28 8.22 12.28 8.22 11.56 9.33 11.56 9.33 10.85 10.44 10.85 10.44 10.13 11.55 10.13 11.55 8.71 10.44 8.71 10.44 8" fill="#2ef9fc"/><path d="M15.15,5.52v-.57h-.77v-.57H2.62v.57h-.77v.57h-.77V14.51h.77v.57h.77v.57H14.38v-.57h.77v-.57h.77V5.52h-.77Zm-.23,7.99h-.77v.57h-.77v.57H3.62v-.57h-.77v-.57h-.77V6.52h.77v-.57h.77v-.57H13.38v.57h.77v.57h.77v6.99Z"/><polygon points="9.61 8.63 8.5 8.63 8.5 7.92 7.39 7.92 7.39 7.21 6.28 7.21 6.28 12.91 7.39 12.91 7.39 12.19 8.5 12.19 8.5 11.48 9.61 11.48 9.61 10.77 10.71 10.77 10.71 9.34 9.61 9.35 9.61 8.63"/></svg>